<svg id="Grupo_1072136" data-name="Grupo 1072136" xmlns="http://www.w3.org/2000/svg" xmlns:xlink="http://www.w3.org/1999/xlink" width="91.126" height="109.318" viewBox="0 0 91.126 109.318">
  <defs>
    <clipPath id="clip-path">
      <rect id="Rectángulo_377689" data-name="Rectángulo 377689" width="91.126" height="109.318" fill="#0a5e6b"/>
    </clipPath>
  </defs>
  <g id="Grupo_1072134" data-name="Grupo 1072134" clip-path="url(#clip-path)">
    <path id="Trazado_838552" data-name="Trazado 838552" d="M0,58.152Q0,33.832.011,9.511A9.1,9.1,0,0,1,4.383,1.4,9.765,9.765,0,0,1,9.769.006C13-.006,16.236,0,19.47,0H81.317A9.587,9.587,0,0,1,87.6,2.013,8.8,8.8,0,0,1,91,8.272c.23,2.65.083,5.31.087,7.965,0,1.284-.835,1.984-2.219,1.985q-5.169.007-10.338,0c-.532,0-1.065.025-1.594-.008-.359-.023-.42.11-.418.436.014,2.125.007,4.251.007,6.376q0,10.93-.009,21.861c0,.421.1.506.525.5A8.453,8.453,0,0,1,83.274,49.8q2.729,2.68,5.407,5.411a8.136,8.136,0,0,1,2.384,5.743,7.871,7.871,0,0,1-2.189,5.678c-1.7,1.794-3.478,3.519-5.224,5.273q-3.407,3.421-6.822,6.834a1.019,1.019,0,0,0-.316.8q.01,13.686,0,27.372a4.185,4.185,0,0,1-.019.591,1.9,1.9,0,0,1-2.025,1.81c-.151.008-.3,0-.455,0H2.52c-.167,0-.335.005-.5,0A1.946,1.946,0,0,1,0,107.293c-.008-.167,0-.334,0-.5V58.152M72.875,82.664c-1.838,1.846-3.579,3.62-5.348,5.365-2.041,2.014-3.971,4.143-6.127,6.039a15.785,15.785,0,0,1-6.23,3.368c-2.682.753-5.371,1.482-8.058,2.219q-3.527.967-7.056,1.93a11.136,11.136,0,0,1-3,.453q-9.724-.024-19.447-.007a17.069,17.069,0,0,1-1.817-.087,5.411,5.411,0,0,1-.464-10.683,12.044,12.044,0,0,1,2.493-.157c.314.01.41-.073.408-.4q-.022-3.234,0-6.467c0-.329-.065-.44-.419-.435-1.518.022-3.036.01-4.554.009A2.02,2.02,0,0,1,10.934,81.5q0-6.809,0-13.618a2.009,2.009,0,0,1,2.289-2.293c1.533,0,3.067-.01,4.6.007.316,0,.408-.077.406-.4q-.022-3.234,0-6.467c0-.332-.07-.438-.421-.433-1.518.021-3.036.01-4.554.008a2.02,2.02,0,0,1-2.319-2.311q0-6.809,0-13.619a2.009,2.009,0,0,1,2.291-2.291c1.533,0,3.067-.01,4.6.007.319,0,.406-.083.4-.4q-.021-3.234,0-6.467c0-.336-.076-.435-.423-.43-1.548.02-3.1.012-4.645.007a1.988,1.988,0,0,1-2.225-2.221q0-6.9,0-13.8a1.977,1.977,0,0,1,2.2-2.2c.744-.007,1.488,0,2.232,0q5.761,0,11.522,0A1.933,1.933,0,0,1,29.131,16.4a4.129,4.129,0,0,1,.022.591q0,6.741,0,13.481c0,1.607-.726,2.328-2.346,2.329-1.518,0-3.037.006-4.554-.005-.277,0-.4.044-.395.365q.022,3.279,0,6.558c0,.307.1.376.386.373,1.533-.013,3.066-.009,4.6-.005a2.017,2.017,0,0,1,2.308,2.32c0,1.518.013,3.037-.008,4.554-.005.353.105.422.434.419q3.234-.022,6.467,0c.325,0,.4-.093.4-.407-.016-1.548-.009-3.1-.007-4.645a1.994,1.994,0,0,1,2.249-2.241c1.093-.005,2.186,0,3.279,0q5.215,0,10.429,0a1.934,1.934,0,0,1,2.239,1.82,4.183,4.183,0,0,1,.022.591q0,6.741,0,13.481c0,1.59-.725,2.326-2.3,2.327q-6.809,0-13.618,0a2.013,2.013,0,0,1-2.3-2.284c0-1.518-.01-3.037.007-4.554,0-.344-.07-.461-.442-.458q-3.211.029-6.422,0c-.382,0-.439.129-.435.464.016,1.5.007,3.006.007,4.509,0,1.588-.727,2.322-2.3,2.324-1.518,0-3.037.01-4.554-.007-.325,0-.44.06-.437.417q.027,3.233,0,6.467c0,.359.115.418.438.415q2.345-.024,4.691,0a1.908,1.908,0,0,1,2.145,1.822,4.192,4.192,0,0,1,.021.591q0,6.741,0,13.481a2.016,2.016,0,0,1-2.306,2.323c-1.5,0-3.006.013-4.509-.008-.368-.005-.484.074-.482.465.019,2.733.011,5.465.009,8.2a2,2,0,0,1-2.261,2.276c-1.078,0-2.156-.006-3.234,0a1.72,1.72,0,0,0-1.8,1.81,1.743,1.743,0,0,0,1.788,1.827q10.065.006,20.13.008a.473.473,0,0,0,.517-.376c.245-.657.349-1.349.533-2.019,1.118-4.059,2.273-8.109,3.348-12.179A17.426,17.426,0,0,1,45.6,75.749q3.025-3,6.032-6.011,9.241-9.24,18.48-18.484a15.964,15.964,0,0,1,2.375-2.184.789.789,0,0,0,.391-.773q-.01-19.038-.007-38.075a18.091,18.091,0,0,1,.09-2,8.737,8.737,0,0,1,1.383-3.951c.114-.172.372-.342.279-.535s-.383-.084-.582-.084Q41.571,3.646,9.1,3.65A5.345,5.345,0,0,0,3.649,9.1q0,48.027-.008,96.054c0,.394.071.531.507.53q34.113-.018,68.225,0c.432,0,.511-.129.51-.528q-.018-10.976-.009-21.953ZM20.046,29.152c1.669,0,3.338-.008,5.006.007.33,0,.468-.047.466-.433q-.026-5.051,0-10.1c0-.313-.074-.408-.4-.407q-5.074.018-10.148,0c-.33,0-.4.1-.395.411q.016,5.052,0,10.1c0,.334.075.435.422.431,1.683-.019,3.367-.009,5.051-.009m5.462,20.09c0-1.7-.01-3.4.009-5.1,0-.346-.094-.424-.43-.423q-5.052.019-10.1,0c-.306,0-.413.062-.412.393q.019,5.074,0,10.149c0,.323.091.4.406.4q5.052-.017,10.1,0c.384,0,.437-.133.434-.465-.015-1.653-.007-3.307-.007-4.96m25.506-.05c0-1.669-.008-3.338.007-5.006,0-.331-.047-.468-.433-.466q-5.051.026-10.1,0c-.314,0-.408.074-.407.4q.018,5.074,0,10.149c0,.33.1.4.411.395q5.052-.016,10.1,0c.334,0,.434-.075.43-.422-.019-1.683-.008-3.367-.008-5.051m-25.506,25.5c0-1.7-.005-3.4.006-5.1,0-.27-.06-.363-.35-.362q-5.12.015-10.24,0c-.289,0-.351.09-.35.362q.013,5.1,0,10.194c0,.288.065.387.372.386q5.1-.016,10.194,0c.306,0,.376-.1.373-.385-.012-1.7-.006-3.4-.006-5.1M50.461,95.025c.051-.013.183-.045.314-.082,1.283-.358,2.568-.708,3.848-1.077a11.864,11.864,0,0,0,3.448-1.7c.257-.177.308-.3.06-.543Q52.46,85.964,46.809,80.286c-.2-.2-.306-.165-.451.038a11.679,11.679,0,0,0-1.69,3.305c-.433,1.387-.789,2.8-1.2,4.191a.6.6,0,0,0,.177.684q3.179,3.16,6.347,6.332a.486.486,0,0,0,.47.188M74.8,66.515c-.012-.152-.129-.237-.223-.332-.745-.757-1.507-1.5-2.233-2.272-.282-.3-.447-.27-.723.009Q68.5,67.073,65.349,70.2q-5.8,5.79-11.6,11.575c-.172.171-.171.27,0,.436.718.7,1.422,1.409,2.133,2.113.605.6.6.594,1.212-.015q4.166-4.17,8.334-8.335L74.6,66.8c.082-.082.214-.131.2-.282M82,14.577c1.684,0,3.369-.008,5.054.007.314,0,.41-.074.407-.4-.016-1.745,0-3.491-.01-5.236a5.34,5.34,0,0,0-4.14-5.164,5.449,5.449,0,0,0-6.781,5.05c-.025,1.79,0,3.582-.012,5.372,0,.3.09.378.383.376,1.7-.013,3.4-.007,5.1-.007m5.466,46.832a4.723,4.723,0,0,0-1.193-3.556C84.4,55.948,82.551,54.02,80.6,52.2a4.765,4.765,0,0,0-6.456.073c-.588.534-.59.536-.032,1.094Q79.758,59.013,85.4,64.661c.168.169.269.234.467.031a4.769,4.769,0,0,0,1.6-3.283m-18.125-.35c0-.137-.1-.216-.184-.3-.521-.53-1.05-1.053-1.559-1.595-.184-.2-.271-.078-.395.049-.582.6-1.164,1.194-1.754,1.783q-4.576,4.567-9.155,9.132c-2.318,2.317-4.625,4.647-6.947,6.961-.263.262-.345.421-.015.708.514.447.983.947,1.453,1.442.172.181.27.21.464.015q3.027-3.056,6.072-6.094Q63.208,67.265,69.1,61.373c.092-.092.237-.151.24-.313m8.114,8.069c-.175.01-.252.16-.355.263Q71.266,75.214,65.44,81.042q-3.092,3.09-6.192,6.171c-.178.176-.215.28-.014.468a18.036,18.036,0,0,1,1.449,1.446c.3.355.468.231.719-.021q4.342-4.35,8.7-8.689,4.558-4.552,9.118-9.1c.189-.188.225-.306.011-.507-.509-.477-.992-.982-1.488-1.474-.084-.083-.147-.2-.287-.2M83.08,67.4c-.086-.094-.153-.172-.226-.245L71.712,56.038c-.213-.212-.41-.566-.646-.594-.263-.032-.417.384-.64.584-.484.435-.479.448-.007.92q5.545,5.552,11.094,11.1c.47.47.472.466.953-.024.138-.14.286-.271.426-.409.062-.061.116-.131.187-.212m-40.8,24.877c-.085.32-.163.623-.246.925-.353,1.282-.715,2.562-1.056,3.847-.141.532-.1.58.426.442,1.431-.379,2.855-.784,4.285-1.169.561-.151.575-.149.156-.575q-1.466-1.489-2.952-2.958a2.337,2.337,0,0,0-.613-.511" transform="translate(0 0)" fill="#0a5e6b"/>
    <path id="Trazado_838553" data-name="Trazado 838553" d="M114.377,59.849q6.1,0,12.2,0a3.486,3.486,0,0,1,1.162.175,1.746,1.746,0,0,1,.054,3.284,2.981,2.981,0,0,1-1.068.191q-12.361,0-24.722-.006a2.013,2.013,0,0,1-1.808-.771,1.807,1.807,0,0,1,1.523-2.859c.18-.018.364-.012.546-.012h12.111" transform="translate(-63.371 -37.984)" fill="#0a5e6b"/>
    <path id="Trazado_838554" data-name="Trazado 838554" d="M114.332,83.445q-6.1,0-12.2,0a3.216,3.216,0,0,1-1.2-.209,1.745,1.745,0,0,1,.042-3.253,3.085,3.085,0,0,1,1.069-.19q12.338,0,24.677.007a2.017,2.017,0,0,1,1.877.811c.814,1.279.007,2.689-1.6,2.824-.151.012-.3.006-.455.006h-12.2" transform="translate(-63.365 -50.646)" fill="#0a5e6b"/>
    <path id="Trazado_838555" data-name="Trazado 838555" d="M115.259,43.539c-1.108,0-2.216.02-3.322-.007A1.916,1.916,0,0,1,110,42.443a1.819,1.819,0,0,1,1.842-2.543c.788-.027,1.577-.007,2.366-.007,1.441,0,2.882-.018,4.323.007a1.939,1.939,0,0,1,1.985,1.086c.559,1.284-.343,2.5-1.889,2.553h-3.367" transform="translate(-69.709 -25.315)" fill="#0a5e6b"/>
    <path id="Trazado_838556" data-name="Trazado 838556" d="M155.109,43.539c-1.092,0-2.185.02-3.277-.007a1.916,1.916,0,0,1-1.937-1.089,1.819,1.819,0,0,1,1.842-2.543c.788-.027,1.577-.007,2.366-.007,1.441,0,2.883-.018,4.323.007a1.939,1.939,0,0,1,1.985,1.086,1.831,1.831,0,0,1-1.89,2.548c-1.137.023-2.275,0-3.413,0" transform="translate(-95.031 -25.315)" fill="#0a5e6b"/>
  </g>
</svg>
