<svg xmlns="http://www.w3.org/2000/svg" xmlns:xlink="http://www.w3.org/1999/xlink" width="190" height="157" viewBox="0 0 190 157">
  <defs>
    <clipPath id="clip-path">
      <rect id="Rect치ngulo_377682" data-name="Rect치ngulo 377682" width="156.489" height="155.735" fill="#1fd27a"/>
    </clipPath>
  </defs>
  <g id="Grupo_1072117" data-name="Grupo 1072117" transform="translate(-180 -3280)">
    <g id="Grupo_1072116" data-name="Grupo 1072116" transform="translate(197 3281)">
      <g id="Grupo_1072115" data-name="Grupo 1072115" clip-path="url(#clip-path)">
        <path id="Trazado_838516" data-name="Trazado 838516" d="M120.31,80.645c0-10.947.016-21.895-.017-32.842a2.32,2.32,0,0,1,2.831-2.346,2.145,2.145,0,0,1,1.614,1.8,4.174,4.174,0,0,1,.052.791q.005,31.867.006,63.734a19.663,19.663,0,0,1-6.714,15.158.847.847,0,0,0-.268,1.051,19.737,19.737,0,0,1,.434,11.145,21.238,21.238,0,0,1-10.822,14.04,20.741,20.741,0,0,1-10.369,2.561,21.632,21.632,0,0,1-19.693-13.656,22.391,22.391,0,0,1-1.545-8.478,8.788,8.788,0,0,1,.109-1.155c.052-.369-.068-.52-.457-.505-.569.022-1.141,0-1.712,0-11.578,0-23.156.068-34.733-.017a19.867,19.867,0,0,1-19.039-14.48,21,21,0,0,1-.777-5.854q.034-15.26.016-30.521c0-1.045-.009-1.011-1.03-1.169a21.15,21.15,0,0,1-10.93-5.2A21.278,21.278,0,0,1,4.841,45.245a21.447,21.447,0,0,1,12.046-7.539,11.691,11.691,0,0,1,1.87-.279c.4-.033.5-.185.491-.572q-.046-1.772-.021-3.547A19.972,19.972,0,0,1,35.846,13.853a27.478,27.478,0,0,1,5.855-.217,2,2,0,0,0,1.46-.462,13.759,13.759,0,0,1,8.627-3.094c1.141-.037,2.282-.05,3.423.013a.64.64,0,0,0,.714-.322A18.005,18.005,0,0,1,68.045.487a16.874,16.874,0,0,1,8.618.15A18.249,18.249,0,0,1,87.326,8.4a3.658,3.658,0,0,1,.439.732c.3.832.884,1.01,1.715.969a23.594,23.594,0,0,1,5.536.307,12.435,12.435,0,0,1,5.64,2.619,2.648,2.648,0,0,0,1.9.626,25.705,25.705,0,0,1,5.672.2,19.618,19.618,0,0,1,12.311,7.33,19.343,19.343,0,0,1,4.255,12.4c0,1.488.015,2.976.017,4.465a2.462,2.462,0,0,1-2.033,2.644,2.312,2.312,0,0,1-2.5-2.34c-.046-1.629,0-3.261.009-4.892a14.865,14.865,0,0,0-3.362-9.663,15.129,15.129,0,0,0-10.047-5.59,16.862,16.862,0,0,0-1.832-.035c-.355-.012-.4.084-.273.419a12.353,12.353,0,0,1,.89,4.953A13.009,13.009,0,0,1,100.131,34a13.241,13.241,0,0,1-8.079,2.535q-20.179.025-40.359-.008a13.342,13.342,0,0,1-12.852-9.795,13.172,13.172,0,0,1,.461-8.214c.154-.389-.024-.436-.306-.427a17.558,17.558,0,0,0-2.37.205A15.131,15.131,0,0,0,24.178,29.839a25.819,25.819,0,0,0-.355,4.931c-.015.57.057,1.147,0,1.711-.067.652.13.894.811,1a20.965,20.965,0,0,1,14.456,9.012,20.258,20.258,0,0,1,3.428,16.5A21.122,21.122,0,0,1,29.111,78.732a14.3,14.3,0,0,1-4.83,1.224c-.38.013-.465.2-.465.546.007,10.317-.017,20.634.024,30.95a15.729,15.729,0,0,0,.857,6.011,15.065,15.065,0,0,0,11.687,9.671,16.761,16.761,0,0,0,3.171.161q18.437.015,36.874.018a.746.746,0,0,0,.823-.575A21.34,21.34,0,0,1,90.193,114.07a19.21,19.21,0,0,1,8.5-1.312,21.842,21.842,0,0,1,15.848,8.7,8.129,8.129,0,0,1,.823,1.283c.213.428.388.3.62.055a15.483,15.483,0,0,0,3.62-6.089,19.034,19.034,0,0,0,.69-5.854c-.044-6.4,0-12.8,0-19.2q.005-5.5,0-11.009h.015M72.04,31.88h20.6a8.1,8.1,0,0,0,2.183-.2A8.68,8.68,0,0,0,92.3,14.635c-1.728.089-3.464,0-5.2.009a2.337,2.337,0,0,1-2.253-1.389c-.221-.435-.39-.9-.625-1.324a13.843,13.843,0,0,0-22.193-3.1,13.517,13.517,0,0,0-2.673,4.132,2.572,2.572,0,0,1-2.685,1.693c-1.752-.046-3.5-.012-5.257-.021A8.644,8.644,0,0,0,51.5,31.918c6.844-.155,13.694-.039,20.542-.039M4.544,59.072A16.894,16.894,0,0,0,21.787,75.649a16.958,16.958,0,0,0-.513-33.912A16.862,16.862,0,0,0,4.544,59.072m92.8,58.307c-8.74-.346-16.888,7.059-16.97,16.723a16.967,16.967,0,0,0,33.933.3,16.739,16.739,0,0,0-16.963-17.026" transform="translate(0 0)" fill="#1fd27a"/>
        <path id="Trazado_838517" data-name="Trazado 838517" d="M115.692,174.28a16.7,16.7,0,0,0-12.629-16.4,16.876,16.876,0,0,0-19.6,9.165,17.951,17.951,0,0,0-1.48,8.934,16.273,16.273,0,0,0,1.478,5.635,2.293,2.293,0,0,1-2.427,2.965,2.334,2.334,0,0,1-1.48-.991,8.936,8.936,0,0,1-.97-2.166A21.419,21.419,0,0,1,88.9,155.282a20.459,20.459,0,0,1,12.582-2.35,21.749,21.749,0,0,1,18.188,16.328,20.277,20.277,0,0,1-.295,11.156A21.341,21.341,0,0,1,108.722,193.3a20.315,20.315,0,0,1-10.7,2.483,21.481,21.481,0,0,1-12.693-4.806,2.188,2.188,0,0,1-.3-2.79,2.158,2.158,0,0,1,2.89-.777c.666.391,1.278.873,1.934,1.284a15.924,15.924,0,0,0,8.122,2.494c6.889.215,12.064-2.706,15.6-8.545a14.477,14.477,0,0,0,2.12-8.364" transform="translate(-39.391 -77.814)" fill="#1fd27a"/>
        <path id="Trazado_838518" data-name="Trazado 838518" d="M113.768,196.214a37.924,37.924,0,0,1-5.31-.128c-1.333-.178-2.057-.718-2.243-1.718a2.793,2.793,0,0,1,.5-2.261c1.35-1.813,2.732-3.6,4.051-5.44,1.175-1.637,2.408-3.235,3.477-4.947a5.569,5.569,0,0,0,1.147-3.58,2.483,2.483,0,0,0-1.2-1.94,2.945,2.945,0,0,0-4.022,1.085,8.439,8.439,0,0,0-.406,1.019,2.292,2.292,0,0,1-2.442,1.568,2.186,2.186,0,0,1-1.837-2.429,6.81,6.81,0,0,1,3.571-5.183,7.378,7.378,0,0,1,11.017,6.087,8.148,8.148,0,0,1-1.086,4.028,22.251,22.251,0,0,1-2.15,3.475c-1.31,1.792-2.534,3.647-3.918,5.385-.071.09-.213.179-.137.306.1.162.29.126.448.122,1.4-.034,2.81-.084,4.215-.109a5.944,5.944,0,0,1,1.579.094,2.241,2.241,0,0,1-.183,4.444,39.314,39.314,0,0,1-4.213.121c-.285.007-.57,0-.855,0" transform="translate(-53.731 -87.247)" fill="#1fd27a"/>
        <path id="Trazado_838519" data-name="Trazado 838519" d="M125.576,103.154q8.742,0,17.484,0a2.242,2.242,0,0,1,2.355,2.95,2.217,2.217,0,0,1-1.79,1.559,4.127,4.127,0,0,1-1.15.113q-17.025.009-34.051,0a3.618,3.618,0,0,1-1.939-.44,2.069,2.069,0,0,1-1.044-2.336,2.269,2.269,0,0,1,1.682-1.746,4.977,4.977,0,0,1,1.215-.1h17.239Z" transform="translate(-53.698 -52.554)" fill="#1fd27a"/>
        <path id="Trazado_838520" data-name="Trazado 838520" d="M186.519,184.71q-6.6,0-13.208,0c-.428,0-.857,0-1.283-.031a2.234,2.234,0,0,1-2-1.779,2.132,2.132,0,0,1,1.187-2.436,4.945,4.945,0,0,1,2.273-.355q9.968,0,19.935,0,3.18,0,6.36,0a5.055,5.055,0,0,1,1.514.154,2.257,2.257,0,0,1-.592,4.443c-4.627.014-9.254,0-13.88,0h-.306" transform="translate(-86.6 -91.762)" fill="#1fd27a"/>
        <path id="Trazado_838521" data-name="Trazado 838521" d="M270.92,257.317h12.349c.306,0,.612-.006.917.011a2.184,2.184,0,0,1,2.3,2.242,2.285,2.285,0,0,1-2.34,2.255c-.183.01-.366,0-.55,0q-12.655,0-25.309,0a6.769,6.769,0,0,1-1.275-.112,2.193,2.193,0,0,1-1.85-2.236,2.154,2.154,0,0,1,1.944-2.075,8.665,8.665,0,0,1,1.155-.085q6.328-.009,12.655,0Z" transform="translate(-130.002 -131.098)" fill="#1fd27a"/>
        <path id="Trazado_838522" data-name="Trazado 838522" d="M119.514,131.351q-5.593,0-11.186,0a2.908,2.908,0,0,1-1.92-.448,2.182,2.182,0,0,1-.872-2.475,2.407,2.407,0,0,1,1.938-1.642,7.8,7.8,0,0,1,.976-.051q10.971-.008,21.943-.008a10.047,10.047,0,0,1,1.16.051,2.454,2.454,0,0,1,2.138,2.311,2.382,2.382,0,0,1-2.259,2.235c-1.751.05-3.5.041-5.255.046-2.221.006-4.442,0-6.663,0v-.017" transform="translate(-53.722 -64.563)" fill="#1fd27a"/>
        <path id="Trazado_838523" data-name="Trazado 838523" d="M180.578,203.85c2.464,0,4.928,0,7.391,0a5.7,5.7,0,0,1,1.517.115,2.5,2.5,0,0,1,1.814,2.259,2.4,2.4,0,0,1-2.026,2.112,5.813,5.813,0,0,1-.852.055q-7.544,0-15.088-.008a11.313,11.313,0,0,1-1.341-.066,2.226,2.226,0,0,1,.034-4.428c.89-.071,1.79-.036,2.686-.037q2.932-.006,5.864,0Z" transform="translate(-86.618 -103.856)" fill="#1fd27a"/>
        <path id="Trazado_838524" data-name="Trazado 838524" d="M264.851,285.477q-3.329,0-6.659,0a3.7,3.7,0,0,1-1.89-.378,2.217,2.217,0,0,1,.891-4.209c.2-.016.407-.026.61-.026q6.934,0,13.868.011a2.954,2.954,0,0,1,1.931.416,2.27,2.27,0,0,1-1.177,4.158,7,7,0,0,1-.731.028q-3.421,0-6.842,0Z" transform="translate(-129.947 -143.096)" fill="#1fd27a"/>
        <path id="Trazado_838525" data-name="Trazado 838525" d="M137.613,36.818c-4,.242-8.672-3.454-8.694-8.671a8.786,8.786,0,1,1,17.572-.059,8.73,8.73,0,0,1-8.877,8.731m4.37-8.747a4.32,4.32,0,0,0-4.211-4.286,4.229,4.229,0,0,0-4.287,4.23,4.25,4.25,0,1,0,8.5.056" transform="translate(-65.682 -9.828)" fill="#1fd27a"/>
        <path id="Trazado_838526" data-name="Trazado 838526" d="M40.64,107.106q0,4.647,0,9.294a5.913,5.913,0,0,1-.092,1.094,2.1,2.1,0,0,1-2.382,1.784,2.155,2.155,0,0,1-2.022-2.005c-.074-1.117-.091-2.24-.093-3.36q-.008-6.941.009-13.881c0-.774,0-.767-.747-.727a5.289,5.289,0,0,1-2.054-.2,2.055,2.055,0,0,1-1.388-2.42,2.194,2.194,0,0,1,1.877-1.892,32.079,32.079,0,0,1,4.762-.01,2.175,2.175,0,0,1,2.045,1.933,8.18,8.18,0,0,1,.09,1.278q.011,4.555,0,9.111Z" transform="translate(-16.225 -48.248)" fill="#1fd27a"/>
        <path id="Trazado_838527" data-name="Trazado 838527" d="M198.371,256.342a6.5,6.5,0,0,1-1.58,4.447.728.728,0,0,0-.029,1.09,7.336,7.336,0,1,1-13.063,4.609,2.237,2.237,0,0,1,2.012-2.235,2.114,2.114,0,0,1,2.364,1.648c.086.313.124.639.18.959a2.942,2.942,0,0,0,2.717,2.522,3.063,3.063,0,0,0,2.843-2.486,2.719,2.719,0,0,0-2.593-3.225,2.49,2.49,0,0,1-1.969-.938,2.08,2.08,0,0,1-.3-2.24,2.319,2.319,0,0,1,2.231-1.452c1.776.112,3.1-1.844,2.56-3.713a2.822,2.822,0,0,0-2.593-1.973,2.749,2.749,0,0,0-2.689,1.728c-.134.362-.262.729-.431,1.075a2.187,2.187,0,0,1-2.8,1.171,2.243,2.243,0,0,1-1.4-2.557,7.377,7.377,0,0,1,14.317-.548,7.984,7.984,0,0,1,.228,2.118" transform="translate(-93.59 -126.804)" fill="#1fd27a"/>
      </g>
    </g>
    <rect id="Rect치ngulo_377683" data-name="Rect치ngulo 377683" width="190" height="157" transform="translate(180 3280)" fill="none"/>
  </g>
</svg>
